<svg xmlns="http://www.w3.org/2000/svg" style="display:none">

  <!-- ! Ícono codigo -->
  <symbol id="code" viewBox="0 0 24 24" fill="none" stroke="currentColor" stroke-width="2" stroke-linecap="round" stroke-linejoin="round">
    <path d="m18 16 4-4-4-4"/>
    <path d="m6 8-4 4 4 4"/>
    <path d="m14.5 4-5 16"/>
  </symbol>

  <!-- ! Facebook -->
  <symbol id="icon-facebook" viewBox="0 0 666.667 666.667">
    <defs><clipPath id="facebook_icon__a" clipPathUnits="userSpaceOnUse"><path d="M0 700h700V0H0Z"/></clipPath></defs><g clip-path="url(#facebook_icon__a)" transform="matrix(1.33333 0 0 -1.33333 -133.333 800)"><path d="M0 0c0 138.071-111.929 250-250 250S-500 138.071-500 0c0-117.245 80.715-215.622 189.606-242.638v166.242h-51.552V0h51.552v32.919c0 85.092 38.508 124.532 122.048 124.532 15.838 0 43.167-3.105 54.347-6.211V81.986c-5.901.621-16.149.932-28.882.932-40.993 0-56.832-15.528-56.832-55.9V0h81.659l-14.028-76.396h-67.631v-171.773C-95.927-233.218 0-127.818 0 0" style="fill:#0866ff;fill-opacity:1;fill-rule:nonzero;stroke:none" transform="translate(600 350)"/><path d="m0 0 14.029 76.396H-67.63v27.019c0 40.372 15.838 55.899 56.831 55.899 12.733 0 22.981-.31 28.882-.931v69.253c-11.18 3.106-38.509 6.212-54.347 6.212-83.539 0-122.048-39.441-122.048-124.533V76.396h-51.552V0h51.552v-166.242a250.559 250.559 0 0 1 60.394-7.362c10.254 0 20.358.632 30.288 1.831V0Z" style="fill:#fff;fill-opacity:1;fill-rule:nonzero;stroke:none" transform="translate(447.918 273.604)"/></g>
  </symbol>

  <!-- ! Ícono Twitter (X) -->
  <symbol id="icon-x" fill="none" viewBox="0 0 1200 1227">
    <path fill="#fff" d="M714.163 519.284 1160.89 0h-105.86L667.137 450.887 357.328 0H0l468.492 681.821L0 1226.37h105.866l409.625-476.152 327.181 476.152H1200L714.137 519.284h.026ZM569.165 687.828l-47.468-67.894-377.686-540.24h162.604l304.797 435.991 47.468 67.894 396.2 566.721H892.476L569.165 687.854v-.026Z"/>
  </symbol>

  <!-- ! Ícono Instagram -->
  <symbol id="icon-instagram" xmlns:xlink="http://www.w3.org/1999/xlink" viewBox="0 0 264.583 264.583">
    <defs><radialGradient xlink:href="#instagram_icon__a" id="instagram_icon__f" cx="158.429" cy="578.088" r="52.352" fx="158.429" fy="578.088" gradientTransform="matrix(0 -4.03418 4.28018 0 -2332.227 942.236)" gradientUnits="userSpaceOnUse"/><radialGradient xlink:href="#instagram_icon__b" id="instagram_icon__g" cx="172.615" cy="600.692" r="65" fx="172.615" fy="600.692" gradientTransform="matrix(.67441 -1.16203 1.51283 .87801 -814.366 -47.835)" gradientUnits="userSpaceOnUse"/><radialGradient xlink:href="#instagram_icon__c" id="instagram_icon__h" cx="144.012" cy="51.337" r="67.081" fx="144.012" fy="51.337" gradientTransform="matrix(-2.3989 .67549 -.23008 -.81732 464.996 -26.404)" gradientUnits="userSpaceOnUse"/><radialGradient xlink:href="#instagram_icon__d" id="instagram_icon__e" cx="199.788" cy="628.438" r="52.352" fx="199.788" fy="628.438" gradientTransform="matrix(-3.10797 .87652 -.6315 -2.23914 1345.65 1374.198)" gradientUnits="userSpaceOnUse"/><linearGradient id="instagram_icon__d"><stop offset="0" stop-color="#ff005f"/><stop offset="1" stop-color="#fc01d8"/></linearGradient><linearGradient id="instagram_icon__c"><stop offset="0" stop-color="#780cff"/><stop offset="1" stop-color="#820bff" stop-opacity="0"/></linearGradient><linearGradient id="instagram_icon__b"><stop offset="0" stop-color="#fc0"/><stop offset="1" stop-color="#fc0" stop-opacity="0"/></linearGradient><linearGradient id="instagram_icon__a"><stop offset="0" stop-color="#fc0"/><stop offset=".124" stop-color="#fc0"/><stop offset=".567" stop-color="#fe4a05"/><stop offset=".694" stop-color="#ff0f3f"/><stop offset="1" stop-color="#fe0657" stop-opacity="0"/></linearGradient></defs><path fill="url(#instagram_icon__e)" d="M204.15 18.143c-55.23 0-71.383.057-74.523.317-11.334.943-18.387 2.728-26.07 6.554-5.922 2.942-10.592 6.351-15.201 11.13-8.394 8.716-13.481 19.439-15.323 32.184-.895 6.188-1.156 7.45-1.209 39.056-.02 10.536 0 24.4 0 42.999 0 55.2.062 71.341.326 74.476.916 11.032 2.645 17.973 6.308 25.565 7 14.533 20.37 25.443 36.12 29.514 5.453 1.404 11.476 2.178 19.208 2.544 3.277.142 36.669.244 70.081.244 33.413 0 66.826-.04 70.02-.203 8.954-.422 14.153-1.12 19.901-2.606 15.852-4.09 28.977-14.838 36.12-29.575 3.591-7.409 5.412-14.614 6.236-25.07.18-2.28.255-38.626.255-74.924 0-36.304-.082-72.583-.26-74.863-.835-10.625-2.656-17.77-6.364-25.32-3.042-6.182-6.42-10.799-11.324-15.519-8.752-8.361-19.455-13.45-32.21-15.29-6.18-.894-7.41-1.158-39.033-1.213z" transform="translate(-71.816 -18.143)"/><path fill="url(#instagram_icon__f)" d="M204.15 18.143c-55.23 0-71.383.057-74.523.317-11.334.943-18.387 2.728-26.07 6.554-5.922 2.942-10.592 6.351-15.201 11.13-8.394 8.716-13.481 19.439-15.323 32.184-.895 6.188-1.156 7.45-1.209 39.056-.02 10.536 0 24.4 0 42.999 0 55.2.062 71.341.326 74.476.916 11.032 2.645 17.973 6.308 25.565 7 14.533 20.37 25.443 36.12 29.514 5.453 1.404 11.476 2.178 19.208 2.544 3.277.142 36.669.244 70.081.244 33.413 0 66.826-.04 70.02-.203 8.954-.422 14.153-1.12 19.901-2.606 15.852-4.09 28.977-14.838 36.12-29.575 3.591-7.409 5.412-14.614 6.236-25.07.18-2.28.255-38.626.255-74.924 0-36.304-.082-72.583-.26-74.863-.835-10.625-2.656-17.77-6.364-25.32-3.042-6.182-6.42-10.799-11.324-15.519-8.752-8.361-19.455-13.45-32.21-15.29-6.18-.894-7.41-1.158-39.033-1.213z" transform="translate(-71.816 -18.143)"/><path fill="url(#instagram_icon__g)" d="M204.15 18.143c-55.23 0-71.383.057-74.523.317-11.334.943-18.387 2.728-26.07 6.554-5.922 2.942-10.592 6.351-15.201 11.13-8.394 8.716-13.481 19.439-15.323 32.184-.895 6.188-1.156 7.45-1.209 39.056-.02 10.536 0 24.4 0 42.999 0 55.2.062 71.341.326 74.476.916 11.032 2.645 17.973 6.308 25.565 7 14.533 20.37 25.443 36.12 29.514 5.453 1.404 11.476 2.178 19.208 2.544 3.277.142 36.669.244 70.081.244 33.413 0 66.826-.04 70.02-.203 8.954-.422 14.153-1.12 19.901-2.606 15.852-4.09 28.977-14.838 36.12-29.575 3.591-7.409 5.412-14.614 6.236-25.07.18-2.28.255-38.626.255-74.924 0-36.304-.082-72.583-.26-74.863-.835-10.625-2.656-17.77-6.364-25.32-3.042-6.182-6.42-10.799-11.324-15.519-8.752-8.361-19.455-13.45-32.21-15.29-6.18-.894-7.41-1.158-39.033-1.213z" transform="translate(-71.816 -18.143)"/><path fill="url(#instagram_icon__h)" d="M204.15 18.143c-55.23 0-71.383.057-74.523.317-11.334.943-18.387 2.728-26.07 6.554-5.922 2.942-10.592 6.351-15.201 11.13-8.394 8.716-13.481 19.439-15.323 32.184-.895 6.188-1.156 7.45-1.209 39.056-.02 10.536 0 24.4 0 42.999 0 55.2.062 71.341.326 74.476.916 11.032 2.645 17.973 6.308 25.565 7 14.533 20.37 25.443 36.12 29.514 5.453 1.404 11.476 2.178 19.208 2.544 3.277.142 36.669.244 70.081.244 33.413 0 66.826-.04 70.02-.203 8.954-.422 14.153-1.12 19.901-2.606 15.852-4.09 28.977-14.838 36.12-29.575 3.591-7.409 5.412-14.614 6.236-25.07.18-2.28.255-38.626.255-74.924 0-36.304-.082-72.583-.26-74.863-.835-10.625-2.656-17.77-6.364-25.32-3.042-6.182-6.42-10.799-11.324-15.519-8.752-8.361-19.455-13.45-32.21-15.29-6.18-.894-7.41-1.158-39.033-1.213z" transform="translate(-71.816 -18.143)"/><path fill="#fff" d="M132.345 33.973c-26.716 0-30.07.117-40.563.594-10.472.48-17.62 2.136-23.876 4.567-6.47 2.51-11.958 5.87-17.426 11.335-5.472 5.464-8.834 10.948-11.354 17.412-2.44 6.252-4.1 13.397-4.57 23.858-.47 10.486-.593 13.838-.593 40.535 0 26.697.119 30.037.594 40.522.482 10.465 2.14 17.609 4.57 23.859 2.515 6.465 5.876 11.95 11.346 17.414 5.466 5.468 10.955 8.834 17.42 11.345 6.26 2.431 13.41 4.088 23.881 4.567 10.493.477 13.844.594 40.559.594 26.719 0 30.061-.117 40.555-.594 10.472-.48 17.63-2.136 23.888-4.567 6.468-2.51 11.948-5.877 17.414-11.345 5.472-5.464 8.834-10.949 11.354-17.412 2.419-6.252 4.079-13.398 4.57-23.858.472-10.486.595-13.828.595-40.525s-.123-30.047-.594-40.533c-.492-10.465-2.152-17.608-4.57-23.858-2.521-6.466-5.883-11.95-11.355-17.414-5.472-5.468-10.944-8.827-17.42-11.335-6.271-2.431-13.424-4.088-23.897-4.567-10.493-.477-13.834-.594-40.558-.594zm-8.825 17.715c2.62-.004 5.542 0 8.825 0 26.266 0 29.38.094 39.752.565 9.591.438 14.797 2.04 18.264 3.385 4.591 1.782 7.864 3.912 11.305 7.352 3.443 3.44 5.575 6.717 7.362 11.305 1.346 3.46 2.951 8.663 3.388 18.247.47 10.363.573 13.475.573 39.71 0 26.233-.102 29.346-.573 39.709-.44 9.584-2.042 14.786-3.388 18.247-1.783 4.587-3.919 7.854-7.362 11.292-3.443 3.441-6.712 5.57-11.305 7.352-3.463 1.352-8.673 2.95-18.264 3.388-10.37.47-13.486.573-39.752.573-26.268 0-29.38-.102-39.751-.573-9.592-.443-14.797-2.044-18.267-3.39-4.59-1.781-7.87-3.911-11.313-7.352-3.443-3.44-5.574-6.709-7.362-11.298-1.346-3.461-2.95-8.663-3.387-18.247-.472-10.363-.566-13.476-.566-39.726s.094-29.347.566-39.71c.438-9.584 2.04-14.786 3.387-18.25 1.783-4.588 3.919-7.865 7.362-11.305 3.443-3.441 6.722-5.57 11.313-7.357 3.468-1.351 8.675-2.949 18.267-3.389 9.075-.41 12.592-.532 30.926-.553zm61.337 16.322c-6.518 0-11.805 5.277-11.805 11.792 0 6.512 5.287 11.796 11.805 11.796 6.517 0 11.804-5.284 11.804-11.796 0-6.513-5.287-11.796-11.805-11.796zm-52.512 13.782c-27.9 0-50.519 22.603-50.519 50.482 0 27.879 22.62 50.471 50.52 50.471s50.51-22.592 50.51-50.471c0-27.879-22.613-50.482-50.513-50.482zm0 17.715c18.11 0 32.792 14.67 32.792 32.767 0 18.096-14.683 32.767-32.792 32.767-18.11 0-32.791-14.671-32.791-32.767 0-18.098 14.68-32.767 32.791-32.767z"/>
  </symbol>

  <!-- ! Ícono LinkedIn -->
  <symbol id="icon-linkedin" preserveAspectRatio="xMidYMid" viewBox="0 0 256 256">
    <path d="M218.123 218.127h-37.931v-59.403c0-14.165-.253-32.4-19.728-32.4-19.756 0-22.779 15.434-22.779 31.369v60.43h-37.93V95.967h36.413v16.694h.51a39.907 39.907 0 0 1 35.928-19.733c38.445 0 45.533 25.288 45.533 58.186l-.016 67.013ZM56.955 79.27c-12.157.002-22.014-9.852-22.016-22.009-.002-12.157 9.851-22.014 22.008-22.016 12.157-.003 22.014 9.851 22.016 22.008A22.013 22.013 0 0 1 56.955 79.27m18.966 138.858H37.95V95.967h37.97v122.16ZM237.033.018H18.89C8.58-.098.125 8.161-.001 18.471v219.053c.122 10.315 8.576 18.582 18.89 18.474h218.144c10.336.128 18.823-8.139 18.966-18.474V18.454c-.147-10.33-8.635-18.588-18.966-18.453" fill="#0A66C2"/>
  </symbol>

  <!-- ! Ícono Gmail -->
  <symbol id="icon-gmail" viewBox="0 49.4 512 399.42"><g fill="none" fill-rule="evenodd">
    <g fill-rule="nonzero"><path fill="#4285f4" d="M34.91 448.818h81.454V251L0 163.727V413.91c0 19.287 15.622 34.91 34.91 34.91z"/><path fill="#34a853" d="M395.636 448.818h81.455c19.287 0 34.909-15.622 34.909-34.909V163.727L395.636 251z"/><path fill="#fbbc04" d="M395.636 99.727V251L512 163.727v-46.545c0-43.142-49.25-67.782-83.782-41.891z"/></g><path fill="#ea4335" d="M116.364 251V99.727L256 204.455 395.636 99.727V251L256 355.727z"/><path fill="#c5221f" fill-rule="nonzero" d="M0 117.182v46.545L116.364 251V99.727L83.782 75.291C49.25 49.4 0 74.04 0 117.18z"/></g>
  </symbol>

  <!-- ! Ícono HTML -->
  <symbol id="icon-html" viewBox="0 0 452 520">
    <path fill="#e34f26" d="M41 460L0 0h451l-41 460-185 52"/><path fill="#ef652a" d="M226 472l149-41 35-394H226"/><path fill="#ecedee" d="M226 208h-75l-5-58h80V94H84l15 171h127zm0 147l-64-17-4-45h-56l7 89 117 32z"/><path fill="#fff" d="M226 265h69l-7 73-62 17v59l115-32 16-174H226zm0-171v56h136l5-56z"/>
  </symbol>

  <!-- ! Ícono CSS -->
  <symbol id="icon-css" aria-labelledby="css-logo-title css-logo-description" viewBox="0 0 1000 1000">
    <path fill="#639" d="M0 0h840a160 160 0 0 1 160 160v680a160 160 0 0 1-160 160H160A160 160 0 0 1 0 840V0Z"/><path fill="#fff" d="M816.54 919.9c-32.39 0-57.16-9.42-74.5-28.35-17.15-19.03-26.08-46.18-26.88-81.64h69.8c.4 31.36 11.42 47.08 33.08 47.08 11.04 0 18.86-3.5 23.37-10.42 4.41-6.9 6.72-17.93 6.72-33.05 0-12.02-3.01-22.04-8.83-29.95a73.2 73.2 0 0 0-29.48-21.14L783.95 750c-23.06-11.02-39.81-24.04-50.14-39.27-10.03-15.13-15.04-36.36-15.04-63.5 0-30.36 8.83-55 26.37-73.94 18.05-18.93 42.62-28.34 74-28.34 30.3 0 53.76 9.31 70.3 27.84 16.85 18.64 25.67 45.28 26.38 80.14h-67.19c.4-11.4-1.9-22.72-6.72-33.06-3.8-7.6-11.23-11.41-22.26-11.41-19.65 0-29.48 11.71-29.48 35.05 0 11.83 2.4 21.04 7.22 28.05A65.18 65.18 0 0 0 822.76 689l24.77 10.92c25.57 11.72 44.02 26.05 55.35 43.38 11.43 17.23 17.05 40.27 17.05 69.12 0 34.56-9.03 61.1-27.38 79.63-18.25 18.53-43.62 27.85-76 27.85Zm-225.42 0c-32.4 0-57.16-9.42-74.51-28.35-17.15-19.03-26.07-46.18-26.87-81.64h69.79c.4 31.36 11.43 47.08 33.1 47.08 11.02 0 18.84-3.5 23.25-10.42 4.52-6.9 6.72-17.93 6.72-33.05 0-12.02-2.9-22.04-8.72-29.95a73.2 73.2 0 0 0-29.48-21.14L558.53 750c-23.07-11.02-39.81-24.04-50.14-39.27-10.03-15.13-15.04-36.36-15.04-63.5 0-30.36 8.82-55 26.37-73.94 18.05-18.93 42.62-28.34 74-28.34 30.29 0 53.75 9.31 70.2 27.84 17.05 18.64 25.77 45.28 26.47 80.14h-67.18c.4-11.4-1.9-22.72-6.72-33.06-3.81-7.6-11.23-11.41-22.26-11.41-19.66 0-29.49 11.71-29.49 35.05 0 11.83 2.41 21.04 7.22 28.05A65.18 65.18 0 0 0 597.33 689l24.77 10.92c25.57 11.72 44.02 26.05 55.36 43.38 11.33 17.23 17.04 40.27 17.04 69.12 0 34.56-9.12 61.1-27.37 79.63-18.25 18.53-43.62 27.85-76.01 27.85Zm-234.75 0c-31.7 0-56.86-8.62-75.51-25.85-18.65-17.12-27.88-42.87-27.88-76.93V648.83c0-33.85 9.83-59.5 29.48-77.13 19.96-17.43 46.13-26.24 78.52-26.24 31.39 0 56.15 9.01 74.5 26.84 18.56 17.93 27.88 44.58 27.88 80.14v13.32h-73.9v-12.92c0-13.72-3.01-23.84-8.83-30.45a26.46 26.46 0 0 0-21.66-10.32c-12.03 0-20.55 4.1-25.37 12.42a79.04 79.04 0 0 0-6.72 36.66v146.26c0 30.55 10.74 46.08 32.1 46.38 10.02 0 17.54-3.61 22.76-10.82a51.74 51.74 0 0 0 7.72-30.46V801.6h73.9v11.42c0 23.74-4.61 43.57-13.94 59.4a88.8 88.8 0 0 1-38.2 35.66 121.46 121.46 0 0 1-54.85 11.82Z"/>
  </symbol>

  <!-- ! Ícono JavaScript -->
  <symbol id="icon-javascript" viewBox="0 0 1052 1052">
    <path fill="#f0db4f" d="M0 0h1052v1052H0z"/><path d="M965.9 801.1c-7.7-48-39-88.3-131.7-125.9-32.2-14.8-68.1-25.399-78.8-49.8-3.8-14.2-4.3-22.2-1.9-30.8 6.9-27.9 40.2-36.6 66.6-28.6 17 5.7 33.1 18.801 42.8 39.7 45.4-29.399 45.3-29.2 77-49.399-11.6-18-17.8-26.301-25.4-34-27.3-30.5-64.5-46.2-124-45-10.3 1.3-20.699 2.699-31 4-29.699 7.5-58 23.1-74.6 44-49.8 56.5-35.6 155.399 25 196.1 59.7 44.8 147.4 55 158.6 96.9 10.9 51.3-37.699 67.899-86 62-35.6-7.4-55.399-25.5-76.8-58.4-39.399 22.8-39.399 22.8-79.899 46.1 9.6 21 19.699 30.5 35.8 48.7 76.2 77.3 266.899 73.5 301.1-43.5 1.399-4.001 10.6-30.801 3.199-72.101zm-394-317.6h-98.4c0 85-.399 169.4-.399 254.4 0 54.1 2.8 103.7-6 118.9-14.4 29.899-51.7 26.2-68.7 20.399-17.3-8.5-26.1-20.6-36.3-37.699-2.8-4.9-4.9-8.7-5.601-9-26.699 16.3-53.3 32.699-80 49 13.301 27.3 32.9 51 58 66.399 37.5 22.5 87.9 29.4 140.601 17.3 34.3-10 63.899-30.699 79.399-62.199 22.4-41.3 17.6-91.3 17.4-146.6.5-90.2 0-180.4 0-270.9z" fill="#323330"/>
  </symbol>

  <!-- ! Ícono TypeScript -->
  <symbol id="icon-typescript" viewBox="0 0 256 256" preserveAspectRatio="xMidYMid">
    <path d="M20 0h216c11.046 0 20 8.954 20 20v216c0 11.046-8.954 20-20 20H20c-11.046 0-20-8.954-20-20V20C0 8.954 8.954 0 20 0Z" fill="#3178C6"/><path d="M150.518 200.475v27.62c4.492 2.302 9.805 4.028 15.938 5.179 6.133 1.151 12.597 1.726 19.393 1.726 6.622 0 12.914-.633 18.874-1.899 5.96-1.266 11.187-3.352 15.678-6.257 4.492-2.906 8.048-6.704 10.669-11.394 2.62-4.689 3.93-10.486 3.93-17.391 0-5.006-.749-9.394-2.246-13.163a30.748 30.748 0 0 0-6.479-10.055c-2.821-2.935-6.205-5.567-10.149-7.898-3.945-2.33-8.394-4.531-13.347-6.602-3.628-1.497-6.881-2.949-9.761-4.359-2.879-1.41-5.327-2.848-7.342-4.316-2.016-1.467-3.571-3.021-4.665-4.661-1.094-1.64-1.641-3.495-1.641-5.567 0-1.899.489-3.61 1.468-5.135s2.362-2.834 4.147-3.927c1.785-1.094 3.973-1.942 6.565-2.547 2.591-.604 5.471-.906 8.638-.906 2.304 0 4.737.173 7.299.518 2.563.345 5.14.877 7.732 1.597a53.669 53.669 0 0 1 7.558 2.719 41.7 41.7 0 0 1 6.781 3.797v-25.807c-4.204-1.611-8.797-2.805-13.778-3.582-4.981-.777-10.697-1.165-17.147-1.165-6.565 0-12.784.705-18.658 2.115-5.874 1.409-11.043 3.61-15.506 6.602-4.463 2.993-7.99 6.805-10.582 11.437-2.591 4.632-3.887 10.17-3.887 16.615 0 8.228 2.375 15.248 7.127 21.06 4.751 5.811 11.963 10.731 21.638 14.759a291.458 291.458 0 0 1 10.625 4.575c3.283 1.496 6.119 3.049 8.509 4.66 2.39 1.611 4.276 3.366 5.658 5.265 1.382 1.899 2.073 4.057 2.073 6.474a9.901 9.901 0 0 1-1.296 4.963c-.863 1.524-2.174 2.848-3.93 3.97-1.756 1.122-3.945 1.999-6.565 2.632-2.62.633-5.687.95-9.2.95-5.989 0-11.92-1.05-17.794-3.151-5.875-2.1-11.317-5.25-16.327-9.451Zm-46.036-68.733H140V109H41v22.742h35.345V233h28.137V131.742Z" fill="#FFF"/>
  </symbol>

  <!-- ! Ícono React -->
  <symbol id="react" viewBox="0 0 256 228">
    <path fill="#61DAFB" stroke="#61DAFB" stroke-width="1.5" d="M210.483 73.824a171.49 171.49 0 0 0-8.24-2.597c.465-1.9.893-3.777 1.273-5.621c6.238-30.281 2.16-54.676-11.769-62.708c-13.355-7.7-35.196.329-57.254 19.526a171.23 171.23 0 0 0-6.375 5.848a155.866 155.866 0 0 0-4.241-3.917C100.759 3.829 77.587-4.822 63.673 3.233C50.33 10.957 46.379 33.89 51.995 62.588a170.974 170.974 0 0 0 1.892 8.48c-3.28.932-6.445 1.924-9.474 2.98C17.309 83.498 0 98.307 0 113.668c0 15.865 18.582 31.778 46.812 41.427a145.52 145.52 0 0 0 6.921 2.165a167.467 167.467 0 0 0-2.01 9.138c-5.354 28.2-1.173 50.591 12.134 58.266c13.744 7.926 36.812-.22 59.273-19.855a145.567 145.567 0 0 0 5.342-4.923a168.064 168.064 0 0 0 6.92 6.314c21.758 18.722 43.246 26.282 56.54 18.586c13.731-7.949 18.194-32.003 12.4-61.268a145.016 145.016 0 0 0-1.535-6.842c1.62-.48 3.21-.974 4.76-1.488c29.348-9.723 48.443-25.443 48.443-41.52c0-15.417-17.868-30.326-45.517-39.844Zm-6.365 70.984c-1.4.463-2.836.91-4.3 1.345c-3.24-10.257-7.612-21.163-12.963-32.432c5.106-11 9.31-21.767 12.459-31.957c2.619.758 5.16 1.557 7.61 2.4c23.69 8.156 38.14 20.213 38.14 29.504c0 9.896-15.606 22.743-40.946 31.14Zm-10.514 20.834c2.562 12.94 2.927 24.64 1.23 33.787c-1.524 8.219-4.59 13.698-8.382 15.893c-8.067 4.67-25.32-1.4-43.927-17.412a156.726 156.726 0 0 1-6.437-5.87c7.214-7.889 14.423-17.06 21.459-27.246c12.376-1.098 24.068-2.894 34.671-5.345a134.17 134.17 0 0 1 1.386 6.193ZM87.276 214.515c-7.882 2.783-14.16 2.863-17.955.675c-8.075-4.657-11.432-22.636-6.853-46.752a156.923 156.923 0 0 1 1.869-8.499c10.486 2.32 22.093 3.988 34.498 4.994c7.084 9.967 14.501 19.128 21.976 27.15a134.668 134.668 0 0 1-4.877 4.492c-9.933 8.682-19.886 14.842-28.658 17.94ZM50.35 144.747c-12.483-4.267-22.792-9.812-29.858-15.863c-6.35-5.437-9.555-10.836-9.555-15.216c0-9.322 13.897-21.212 37.076-29.293c2.813-.98 5.757-1.905 8.812-2.773c3.204 10.42 7.406 21.315 12.477 32.332c-5.137 11.18-9.399 22.249-12.634 32.792a134.718 134.718 0 0 1-6.318-1.979Zm12.378-84.26c-4.811-24.587-1.616-43.134 6.425-47.789c8.564-4.958 27.502 2.111 47.463 19.835a144.318 144.318 0 0 1 3.841 3.545c-7.438 7.987-14.787 17.08-21.808 26.988c-12.04 1.116-23.565 2.908-34.161 5.309a160.342 160.342 0 0 1-1.76-7.887Zm110.427 27.268a347.8 347.8 0 0 0-7.785-12.803c8.168 1.033 15.994 2.404 23.343 4.08c-2.206 7.072-4.956 14.465-8.193 22.045a381.151 381.151 0 0 0-7.365-13.322Zm-45.032-43.861c5.044 5.465 10.096 11.566 15.065 18.186a322.04 322.04 0 0 0-30.257-.006c4.974-6.559 10.069-12.652 15.192-18.18ZM82.802 87.83a323.167 323.167 0 0 0-7.227 13.238c-3.184-7.553-5.909-14.98-8.134-22.152c7.304-1.634 15.093-2.97 23.209-3.984a321.524 321.524 0 0 0-7.848 12.897Zm8.081 65.352c-8.385-.936-16.291-2.203-23.593-3.793c2.26-7.3 5.045-14.885 8.298-22.6a321.187 321.187 0 0 0 7.257 13.246c2.594 4.48 5.28 8.868 8.038 13.147Zm37.542 31.03c-5.184-5.592-10.354-11.779-15.403-18.433c4.902.192 9.899.29 14.978.29c5.218 0 10.376-.117 15.453-.343c-4.985 6.774-10.018 12.97-15.028 18.486Zm52.198-57.817c3.422 7.8 6.306 15.345 8.596 22.52c-7.422 1.694-15.436 3.058-23.88 4.071a382.417 382.417 0 0 0 7.859-13.026a347.403 347.403 0 0 0 7.425-13.565Zm-16.898 8.101a358.557 358.557 0 0 1-12.281 19.815a329.4 329.4 0 0 1-23.444.823c-7.967 0-15.716-.248-23.178-.732a310.202 310.202 0 0 1-12.513-19.846h.001a307.41 307.41 0 0 1-10.923-20.627a310.278 310.278 0 0 1 10.89-20.637l-.001.001a307.318 307.318 0 0 1 12.413-19.761c7.613-.576 15.42-.876 23.31-.876H128c7.926 0 15.743.303 23.354.883a329.357 329.357 0 0 1 12.335 19.695a358.489 358.489 0 0 1 11.036 20.54a329.472 329.472 0 0 1-11 20.722Zm22.56-122.124c8.572 4.944 11.906 24.881 6.52 51.026c-.344 1.668-.73 3.367-1.15 5.09c-10.622-2.452-22.155-4.275-34.23-5.408c-7.034-10.017-14.323-19.124-21.64-27.008a160.789 160.789 0 0 1 5.888-5.4c18.9-16.447 36.564-22.941 44.612-18.3ZM128 90.808c12.625 0 22.86 10.235 22.86 22.86s-10.235 22.86-22.86 22.86s-22.86-10.235-22.86-22.86s10.235-22.86 22.86-22.86Z"/>
  </symbol>

  <!-- ! Ícono Node -->
  <symbol id="icon-nodejs" viewBox="0 0 256 292" xmlns:xlink="http://www.w3.org/1999/xlink">
    <defs><linearGradient id="nodejs__a" x1="68.188%" x2="27.823%" y1="17.487%" y2="89.755%"><stop offset="0%" stop-color="#41873F"/><stop offset="32.88%" stop-color="#418B3D"/><stop offset="63.52%" stop-color="#419637"/><stop offset="93.19%" stop-color="#3FA92D"/><stop offset="100%" stop-color="#3FAE2A"/></linearGradient><linearGradient id="nodejs__c" x1="43.277%" x2="159.245%" y1="55.169%" y2="-18.306%"><stop offset="13.76%" stop-color="#41873F"/><stop offset="40.32%" stop-color="#54A044"/><stop offset="71.36%" stop-color="#66B848"/><stop offset="90.81%" stop-color="#6CC04A"/></linearGradient><linearGradient id="nodejs__f" x1="-4.389%" x2="101.499%" y1="49.997%" y2="49.997%"><stop offset="9.192%" stop-color="#6CC04A"/><stop offset="28.64%" stop-color="#66B848"/><stop offset="59.68%" stop-color="#54A044"/><stop offset="86.24%" stop-color="#41873F"/></linearGradient><path id="nodejs__b" d="M134.923 1.832c-4.344-2.443-9.502-2.443-13.846 0L6.787 67.801C2.443 70.244 0 74.859 0 79.745v132.208c0 4.887 2.715 9.502 6.787 11.945l114.29 65.968c4.344 2.444 9.502 2.444 13.846 0l114.29-65.968c4.344-2.443 6.787-7.058 6.787-11.945V79.745c0-4.886-2.715-9.501-6.787-11.944L134.923 1.832Z"/><path id="nodejs__e" d="M134.923 1.832c-4.344-2.443-9.502-2.443-13.846 0L6.787 67.801C2.443 70.244 0 74.859 0 79.745v132.208c0 4.887 2.715 9.502 6.787 11.945l114.29 65.968c4.344 2.444 9.502 2.444 13.846 0l114.29-65.968c4.344-2.443 6.787-7.058 6.787-11.945V79.745c0-4.886-2.715-9.501-6.787-11.944L134.923 1.832Z"/></defs><path fill="url(#nodejs__a)" d="M134.923 1.832c-4.344-2.443-9.502-2.443-13.846 0L6.787 67.801C2.443 70.244 0 74.859 0 79.745v132.208c0 4.887 2.715 9.502 6.787 11.945l114.29 65.968c4.344 2.444 9.502 2.444 13.846 0l114.29-65.968c4.344-2.443 6.787-7.058 6.787-11.945V79.745c0-4.886-2.715-9.501-6.787-11.944L134.923 1.832Z"/><mask id="nodejs__d" fill="#fff"><use xlink:href="#nodejs__b"/></mask><path fill="url(#nodejs__c)" d="M249.485 67.8 134.65 1.833c-1.086-.542-2.443-1.085-3.529-1.357L2.443 220.912c1.086 1.357 2.444 2.443 3.8 3.258l114.834 65.968c3.258 1.9 7.059 2.443 10.588 1.357L252.47 70.515c-.815-1.086-1.9-1.9-2.986-2.714Z" mask="url(#nodejs__d)"/><mask id="nodejs__g" fill="#fff"><use xlink:href="#nodejs__e"/></mask><path fill="url(#nodejs__f)" d="M249.756 223.898c3.258-1.9 5.701-5.158 6.787-8.687L130.579.204c-3.258-.543-6.787-.272-9.773 1.628L6.786 67.53l122.979 224.238c1.628-.272 3.529-.815 5.158-1.63l114.833-66.239Z" mask="url(#nodejs__g)"/>
  </symbol>

  <!-- ! Ícono Express -->
  <symbol id="icon-express" viewBox="0 0 32 32">
    <path fill="#fff" d="M32 24.795c-1.164.296-1.884.013-2.53-.957l-4.594-6.356-.664-.88-5.365 7.257c-.613.873-1.256 1.253-2.4.944l6.87-9.222-6.396-8.33c1.1-.214 1.86-.105 2.535.88l4.765 6.435 4.8-6.4c.615-.873 1.276-1.205 2.38-.883l-2.48 3.288-3.36 4.375c-.4.5-.345.842.023 1.325L32 24.795zM.008 15.427l.562-2.764C2.1 7.193 8.37 4.92 12.694 8.3c2.527 1.988 3.155 4.8 3.03 7.95H1.48c-.214 5.67 3.867 9.092 9.07 7.346 1.825-.613 2.9-2.042 3.438-3.83.273-.896.725-1.036 1.567-.78-.43 2.236-1.4 4.104-3.45 5.273-3.063 1.75-7.435 1.184-9.735-1.248C1 21.6.434 19.812.18 17.9c-.04-.316-.12-.617-.18-.92q.008-.776.008-1.552zm1.498-.38h12.872c-.084-4.1-2.637-7.012-6.126-7.037-3.83-.03-6.58 2.813-6.746 7.037z"/>
  </symbol>

  <!-- ! Ícono NextJS -->
  <symbol id="icon-nextjs" viewBox="0 0 180 180">
    <mask height="180" id="nextjs_icon_dark__:r8:mask0_408_134" maskUnits="userSpaceOnUse" width="180" x="0" y="0" style="mask-type:alpha"><circle cx="90" cy="90" fill="black" r="90"/></mask><g mask="url(#nextjs_icon_dark__:r8:mask0_408_134)"><circle cx="90" cy="90" data-circle="true" fill="black" r="90"/><path d="M149.508 157.52L69.142 54H54V125.97H66.1136V69.3836L139.999 164.845C143.333 162.614 146.509 160.165 149.508 157.52Z" fill="url(#nextjs_icon_dark__:r8:paint0_linear_408_134)"/><rect fill="url(#nextjs_icon_dark__:r8:paint1_linear_408_134)" height="72" width="12" x="115" y="54"/></g><defs><linearGradient gradientUnits="userSpaceOnUse" id="nextjs_icon_dark__:r8:paint0_linear_408_134" x1="109" x2="144.5" y1="116.5" y2="160.5"><stop stop-color="white"/><stop offset="1" stop-color="white" stop-opacity="0"/></linearGradient><linearGradient gradientUnits="userSpaceOnUse" id="nextjs_icon_dark__:r8:paint1_linear_408_134" x1="121" x2="120.799" y1="54" y2="106.875"><stop stop-color="white"/><stop offset="1" stop-color="white" stop-opacity="0"/></linearGradient></defs>
  </symbol>

  <!-- ! Ícono Prisma -->
  <symbol id="icon-prisma" viewBox="0 0 256 310" preserveAspectRatio="xMidYMid">
    <path fill="#fff" d="M254.313 235.519L148 9.749A17.063 17.063 0 00133.473.037a16.87 16.87 0 00-15.533 8.052L2.633 194.848a17.465 17.465 0 00.193 18.747L59.2 300.896a18.13 18.13 0 0020.363 7.489l163.599-48.392a17.929 17.929 0 0011.26-9.722 17.542 17.542 0 00-.101-14.76l-.008.008zm-23.802 9.683l-138.823 41.05c-4.235 1.26-8.3-2.411-7.419-6.685l49.598-237.484c.927-4.443 7.063-5.147 9.003-1.035l91.814 194.973a6.63 6.63 0 01-4.18 9.18h.007z"/>
  </symbol>

  <!-- ! Ícono MongoDB -->
  <symbol id="icon-mongodb" fill="none" viewBox="0 0 120 257">
    <path fill="#00ED64" d="M82.323 28.55C71.537 15.795 62.249 2.84 60.35.15c-.2-.2-.5-.2-.7 0-1.897 2.69-11.185 15.645-21.971 28.4C-54.902 146.238 52.26 225.661 52.26 225.661l.9.597c.798 12.258 2.795 29.896 2.795 29.896h7.99s1.998-17.539 2.797-29.896l.899-.697c.1 0 107.263-79.323 14.68-197.01ZM59.95 223.867s-4.793-4.086-6.092-6.179v-.199l5.793-128.151c0-.4.6-.4.6 0l5.792 128.151v.199c-1.299 2.093-6.093 6.179-6.093 6.179Z"/>
  </symbol>

  <!-- ! Ícono PostgreSQL -->
  <symbol id="icon-postgresql" xml:space="preserve" viewBox="0 0 432.071 445.383">
    <g style="fill-rule:nonzero;clip-rule:nonzero;fill:none;stroke:#fff;stroke-width:12.4651;stroke-linecap:round;stroke-linejoin:round;stroke-miterlimit:4"><path d="M323.205 324.227c2.833-23.601 1.984-27.062 19.563-23.239l4.463.392c13.517.615 31.199-2.174 41.587-7 22.362-10.376 35.622-27.7 13.572-23.148-50.297 10.376-53.755-6.655-53.755-6.655 53.111-78.803 75.313-178.836 56.149-203.322-52.27-66.789-142.748-35.206-144.262-34.386l-.482.089c-9.938-2.062-21.06-3.294-33.554-3.496-22.761-.374-40.032 5.967-53.133 15.904 0 0-161.408-66.498-153.899 83.628 1.597 31.936 45.777 241.655 98.47 178.31 19.259-23.163 37.871-42.748 37.871-42.748 9.242 6.14 20.307 9.272 31.912 8.147l.897-.765c-.281 2.876-.157 5.689.359 9.019-13.572 15.167-9.584 17.83-36.723 23.416-27.457 5.659-11.326 15.734-.797 18.367 12.768 3.193 42.305 7.716 62.268-20.224l-.795 3.188c5.325 4.26 4.965 30.619 5.72 49.452.756 18.834 2.017 36.409 5.856 46.771 3.839 10.36 8.369 37.05 44.036 29.406 29.809-6.388 52.6-15.582 54.677-101.107" style="fill:#000;stroke:#000;stroke-width:37.3953;stroke-linecap:butt;stroke-linejoin:miter"/><path d="M402.395 271.23c-50.302 10.376-53.76-6.655-53.76-6.655 53.111-78.808 75.313-178.843 56.153-203.326-52.27-66.785-142.752-35.2-144.262-34.38l-.486.087c-9.938-2.063-21.06-3.292-33.56-3.496-22.761-.373-40.026 5.967-53.127 15.902 0 0-161.411-66.495-153.904 83.63 1.597 31.938 45.776 241.657 98.471 178.312 19.26-23.163 37.869-42.748 37.869-42.748 9.243 6.14 20.308 9.272 31.908 8.147l.901-.765c-.28 2.876-.152 5.689.361 9.019-13.575 15.167-9.586 17.83-36.723 23.416-27.459 5.659-11.328 15.734-.796 18.367 12.768 3.193 42.307 7.716 62.266-20.224l-.796 3.188c5.319 4.26 9.054 27.711 8.428 48.969-.626 21.259-1.044 35.854 3.147 47.254 4.191 11.4 8.368 37.05 44.042 29.406 29.809-6.388 45.256-22.942 47.405-50.555 1.525-19.631 4.976-16.729 5.194-34.28l2.768-8.309c3.192-26.611.507-35.196 18.872-31.203l4.463.392c13.517.615 31.208-2.174 41.591-7 22.358-10.376 35.618-27.7 13.573-23.148z" style="fill:#336791;stroke:none" stroke="none"/><path d="M215.866 286.484c-1.385 49.516.348 99.377 5.193 111.495 4.848 12.118 15.223 35.688 50.9 28.045 29.806-6.39 40.651-18.756 45.357-46.051 3.466-20.082 10.148-75.854 11.005-87.281M173.104 38.256S11.583-27.76 19.092 122.365c1.597 31.938 45.779 241.664 98.473 178.316 19.256-23.166 36.671-41.335 36.671-41.335M260.349 26.207c-5.591 1.753 89.848-34.889 144.087 34.417 19.159 24.484-3.043 124.519-56.153 203.329"/><path d="M348.282 263.953s3.461 17.036 53.764 6.653c22.04-4.552 8.776 12.774-13.577 23.155-18.345 8.514-59.474 10.696-60.146-1.069-1.729-30.355 21.647-21.133 19.96-28.739-1.525-6.85-11.979-13.573-18.894-30.338-6.037-14.633-82.796-126.849 21.287-110.183 3.813-.789-27.146-99.002-124.553-100.599-97.385-1.597-94.19 119.762-94.19 119.762" style="stroke-linejoin:bevel"/><path d="M188.604 274.334c-13.577 15.166-9.584 17.829-36.723 23.417-27.459 5.66-11.326 15.733-.797 18.365 12.768 3.195 42.307 7.718 62.266-20.229 6.078-8.509-.036-22.086-8.385-25.547-4.034-1.671-9.428-3.765-16.361 3.994z"/><path d="M187.715 274.069c-1.368-8.917 2.93-19.528 7.536-31.942 6.922-18.626 22.893-37.255 10.117-96.339-9.523-44.029-73.396-9.163-73.436-3.193-.039 5.968 2.889 30.26-1.067 58.548-5.162 36.913 23.488 68.132 56.479 64.938"/><path d="M172.517 141.7c-.288 2.039 3.733 7.48 8.976 8.207 5.234.73 9.714-3.522 9.998-5.559.284-2.039-3.732-4.285-8.977-5.015-5.237-.731-9.719.333-9.996 2.367z" style="fill:#fff;stroke-width:4.155;stroke-linecap:butt;stroke-linejoin:miter"/><path d="M331.941 137.543c.284 2.039-3.732 7.48-8.976 8.207-5.238.73-9.718-3.522-10.005-5.559-.277-2.039 3.74-4.285 8.979-5.015 5.239-.73 9.718.333 10.002 2.368z" style="fill:#fff;stroke-width:2.0775;stroke-linecap:butt;stroke-linejoin:miter"/><path d="M350.676 123.432c.863 15.994-3.445 26.888-3.988 43.914-.804 24.748 11.799 53.074-7.191 81.435"/></g>
  </symbol>

</svg>